<svg id="Camada_1" data-name="Camada 1" xmlns="http://www.w3.org/2000/svg" viewBox="0 0 207 254"><defs><style>.cls-1{fill:#fff;}</style></defs><path class="cls-1" d="M237.5,23H61.5A15.5,15.5,0,0,0,46,38.5v223A15.5,15.5,0,0,0,61.5,277h176A15.5,15.5,0,0,0,253,261.5V38.5A15.5,15.5,0,0,0,237.5,23ZM130,114a3,3,0,0,1-3,3H71a3,3,0,0,1-3-3v-5a3,3,0,0,1,3-3h56a3,3,0,0,1,3,3ZM232,93a3,3,0,0,1-3,3H71a3,3,0,0,1-3-3V88a3,3,0,0,1,3-3H229a3,3,0,0,1,3,3Zm0-21a3,3,0,0,1-3,3H71a3,3,0,0,1-3-3V67a3,3,0,0,1,3-3H229a3,3,0,0,1,3,3Zm0-21a3,3,0,0,1-3,3H71a3,3,0,0,1-3-3V46a3,3,0,0,1,3-3H229a3,3,0,0,1,3,3Z" transform="translate(-46 -23)"/></svg>