<svg id="Camada_1" data-name="Camada 1" xmlns="http://www.w3.org/2000/svg" viewBox="0 0 97.86 97.1"><defs><style>.cls-1{fill:#fff;}</style></defs><path class="cls-1" d="M50.07,9.66A39.64,39.64,0,1,0,89.71,49.3,39.64,39.64,0,0,0,50.07,9.66Zm0,60.39A20.75,20.75,0,1,1,70.82,49.3,20.75,20.75,0,0,1,50.07,70.05Z" transform="translate(-1.14 -1.59)"/><rect class="cls-1" x="15.7" y="5.02" width="26.94" height="18.58" rx="5.64" transform="translate(-4.39 14.91) rotate(-30)"/><rect class="cls-1" x="61.45" y="0.96" width="18.58" height="26.94" rx="5.64" transform="translate(21.74 66.89) rotate(-60)"/><rect class="cls-1" y="34.4" width="18.58" height="26.94" rx="5.64"/><rect class="cls-1" x="79.28" y="34.4" width="18.58" height="26.94" rx="5.64"/><rect class="cls-1" x="20.26" y="72.49" width="18.58" height="26.94" rx="5.64" transform="translate(-60.81 66.99) rotate(-60)"/><rect class="cls-1" x="56.96" y="76.68" width="26.94" height="18.58" rx="5.64" transform="translate(-34.69 45.15) rotate(-30)"/></svg>