<svg id="Camada_1" data-name="Camada 1" xmlns="http://www.w3.org/2000/svg" viewBox="0 0 341 409.06"><path d="M429.91,219.74c8.55-3.49,13.74-8.07,14.46-13.56,1-7.57-6.66-15.66-20.3-23.06,34.47-35.43,48.74-76.74,31.79-94.78-10.25-10.91-29.7-11-51.76-2.17,0-18.9-5.74-33.4-17.19-39.18-11.26-5.68-26-1.87-41,8.93C336,33.85,321.65,20.13,306.51,21c-26.19,1.48-45,46-42,99.52a187.24,187.24,0,0,0,5.91,37.67c-24.07,2.91-40,9.87-41.32,19.81-1,8,7.46,16.46,22.4,24.17C191.73,220.63,150,262.41,150,311c0,65.72,76.34,119,170.5,119S491,376.72,491,311C491,274.35,467.25,241.57,429.91,219.74Zm-72,149.13-37.34-19.63-37.34,19.63,7.13-41.58-30.21-29.44,41.75-6.07L320.58,254l18.67,37.83L381,297.85l-30.21,29.44Z" transform="translate(-150 -20.94)"/></svg>